<svg xmlns="http://www.w3.org/2000/svg">
	<symbol id="x" viewBox="0 0 580 600"><path d="M421.34 95h69.77L338.68 268.67 518 505H377.6L267.63 361.67 141.8 505H71.98l163.04-185.76L63 95h143.97l99.4 131.01L421.34 95Zm-24.49 368.37h38.66L185.96 134.44h-41.49l252.38 328.93Z"/></symbol>
	<symbol id="instagram" xmlns="http://www.w3.org/2000/svg" viewBox="0 0 510 550"><path d="M501.37 169.47c-1.35-30.95-7.07-48.68-11.28-59.33a114.2 114.2 0 00-27.24-41.79A114.27 114.27 0 00421 41.07h-.11c-11.59-4.46-28.77-9.76-59-11.19h-.13c-28.36-1.29-37.67-1.58-106.36-1.58s-78 .29-106.33 1.53c-30.95 1.35-48.68 7.07-59.33 11.28A114.2 114.2 0 0048 68.35a114.27 114.27 0 00-27.28 41.88.76.76 0 010 .11c-4.46 11.59-9.76 28.77-11.19 59a.57.57 0 010 .13C8.19 197.8 7.9 207.11 7.9 275.8s.29 78.1 1.53 106.33c1.35 31 7.08 48.69 11.28 59.34A114.33 114.33 0 0048 483.25a114.27 114.27 0 0041.88 27.28h.11c11.59 4.46 28.77 9.76 59 11.19h.13c28.32 1.24 37.62 1.53 106.33 1.53s78.11-.29 106.33-1.53c31-1.35 48.69-7.08 59.34-11.28a120.93 120.93 0 0069.05-69.12 1.17 1.17 0 00.05-.11c4.46-11.59 9.76-28.77 11.19-59v-.13c1.24-28.35 1.53-37.65 1.53-106.33s-.33-78.04-1.57-106.28zm-35 211.13c-1.2 25.3-5.4 39-8.9 48.1a86 86 0 01-49.2 49.2c-9.1 3.6-22.9 7.8-48.1 8.9-27.3 1.2-35.5 1.5-104.8 1.5s-77.4-.3-104.8-1.5c-25.3-1.2-39-5.4-48.1-8.9a80.16 80.16 0 01-29.8-19.4 80.16 80.16 0 01-19.4-29.8c-3.6-9.1-7.8-22.9-8.9-48.1-1.2-27.3-1.5-35.5-1.5-104.8s.3-77.4 1.5-104.8c1.2-25.3 5.4-39 8.9-48.1A80.16 80.16 0 0172.7 93.1a80.16 80.16 0 0129.8-19.4c9.1-3.6 22.9-7.8 48.1-8.9 27.4-1.2 35.6-1.5 104.8-1.5 69.2 0 77.4.3 104.8 1.5 25.3 1.2 39 5.4 48.1 8.9a80.16 80.16 0 0129.8 19.4 80.16 80.16 0 0119.4 29.8c3.6 9.1 7.8 22.9 8.9 48.1 1.2 27.3 1.5 35.5 1.5 104.8s-.3 77.4-1.5 104.8z"/><path d="M255.4 154.9a121 121 0 10121 121 121.14 121.14 0 00-121-121zm0 207a86 86 0 1186-86 86 86 0 01-86 86z"/><circle cx="353.1" cy="137.7" r="23"/></symbol>
	<symbol id="facebook" xmlns="http://www.w3.org/2000/svg" viewBox="0 0 550 550"><path d="M464.43 85.57A267.89 267.89 0 1085.57 464.43 267.89 267.89 0 10464.43 85.57zM179.5 342.3V275h59.1v-51.3c0-58.4 34.8-90.6 88-90.6 25.5 0 52.1 4.5 52.1 4.5v57.3h-29.4c-28.9 0-37.9 18-37.9 36.4V275H376l-10.3 67.3h-54.3V505a242.7 242.7 0 01-36.4 2.8 230.21 230.21 0 01-36.4-2.8V342.3zm166.9 154.43V377.3h19.3a35 35 0 0034.6-29.7l10.3-67.31A35 35 0 00376 240h-29.6v-8.7-1.26a26.62 26.62 0 012.86-.14h29.4a35 35 0 0035-35v-57.3a35 35 0 00-29.16-34.51c-1.21-.2-29.82-5-57.94-5-36 0-66.68 11.64-88.7 33.65-22.44 22.44-34.3 54.24-34.3 91.95V240H179.5a35 35 0 00-35 35v67.3a35 35 0 0035 35h24.1v119.43C109.9 466.59 42.1 378.72 42.1 275 42.1 146.37 146.37 42.1 275 42.1S507.9 146.37 507.9 275c0 103.72-67.8 191.59-161.5 221.73z"/></symbol>
	<symbol id="telegram" viewBox="0 0 560 550"><path d="M168.26 434.73c-.1 20.95 8.58 33.67 15.89 40.65 9.87 9.45 23.31 14.22 37.9 13.47 24.42-1.32 37.08-13.58 44.69-20.94l27.4-26.6a34.32 34.32 0 004.1-4.77l87.64 64.63a34.16 34.16 0 004 2.54c13.26 7.25 24.93 9.79 34.78 9.79a53.94 53.94 0 0022.73-4.93c12.07-5.58 27.73-18.31 33.82-47.36L554 118.42c6.62-27.29-.1-52.47-18.05-67.48-16.32-13.65-39.33-16.44-60.31-7.41L48.46 208.24l-.42.17c-40 16-45 41.05-44.48 54.54.52 12.66 6.43 24.5 16.64 33.33 6.64 5.75 15.12 10.24 25.19 13.35l122.77 38.22.1 86.88m74.1 8.07c-6.2 6-11.1 10.5-22.2 11.1-9.6.5-17-5-16.9-19.1l-.1-67.8 66.6 49.2zm277.5-332.2L447 454c-5.1 24.4-19.8 30.2-40.3 19L222.36 337.1l211.3-182.3c9-8-2-11.9-14-4.7l-254.1 160.4-109.8-34.3c-23.7-7.3-23.9-23.6 5.3-35.3L489 75.9c19.46-8.8 38.36 4.8 30.86 34.7z"/></symbol>
	<symbol id="vkontakte" viewBox="0 0 720 550"><path d="M712.64 429.4c-.09-.35-.2-.7-.31-1-7.83-25.29-30.13-53.89-66-94.71-9.22-10.72-20.1-21.4-29.71-30.82-4.12-4-9.25-9.07-12.84-12.82l3.93-5.84c57.22-84.9 84.66-133.47 91.3-161.68 6.8-24.1-1.81-40.42-7.63-48.07-15.55-20.43-41-21.57-47.49-21.51H574.2c-28.27 0-50.39 14.22-62.29 40.05-.19.41-.37.84-.55 1.26-.29.7-25.85 61.8-62.26 111.31V113c0-44.83-28.57-60.8-55.3-60.8H283.9a52.7 52.7 0 00-37.69 15.38 51.33 51.33 0 00-14.91 35.92c0 18.78 9.65 30.86 16 38.84 5.92 7.41 10.62 13.28 11.76 30.72v57c-18.68-28.78-41.82-72.33-60.82-127.07C193.5 89.12 180.79 52.3 134 52.3H63.5c-19.33 0-34.5 5.79-45.12 17.22C9.37 79.23 4.8 91.84 4.8 107c0 28.87 28.59 128.59 117 252.71 30.57 44.14 69.19 80.6 111.7 105.47 42.06 24.61 87.24 37.62 130.64 37.62 29.3 0 47.66-3.93 61.4-13.15 15.79-10.59 23.8-27.06 23.8-48.95v-41.43a312.71 312.71 0 0128.66 25c13.49 13.5 23.85 25.05 32.18 34.33 22.52 25.09 40.3 44.91 74.46 44.91h69.9c27.65 0 42.56-12 50.2-22 6.07-8.03 15.26-25.51 7.9-52.11zm-58.14 39.1h-69.9c-26.5 0-34.6-21.7-82.1-69.2-41.4-40-59.7-45.4-69.9-45.4-14.2 0-18.3 3.4-18.3 23.7v63.1c0 16.9-5.4 27.1-50.2 27.1-74 0-156-44.8-213.7-128.2C63.5 217.6 39.8 125.3 39.8 107c0-10.2 3.4-19.7 23.7-19.7H134c17.6 0 24.4 7.4 31.2 27.1 34.6 99.7 92.3 187.2 116 187.2 8.8 0 12.9-4.1 12.9-26.5V172c-2.7-47.5-27.8-51.5-27.8-68.5 0-8.2 6.7-16.3 17.6-16.3h109.9c14.9 0 20.3 8.2 20.3 25.8v139.1c0 14.9 6.2 20.3 10.9 20.3 8.9 0 16.3-5.4 32.6-21.7 50.2-56.3 86.1-143.1 86.1-143.1 4.7-10.2 12.9-19.7 30.5-19.7h69.9s29-.7 21 25.8c-8.8 40.7-94.3 161.5-93.4 161.5-7.5 12.2-10.2 17.6 0 31.2 7.5 10.2 31.9 31.2 48.2 50.2 29.8 33.9 52.9 62.4 59 82.1 5.4 19.6-4.1 29.8-24.4 29.8z"/></symbol>
</svg>
