<svg xmlns="http://www.w3.org/2000/svg" viewBox="0 0 24 24"><path fill="white" d="M2.44 11.32c5.64-2.4 9.4-3.98 11.28-4.75C19.1 4.4 20.21 4.01 20.93 4c.16 0 .52.04.75.22.2.15.25.36.28.51.02.15.06.48.03.74a218.9 218.9 0 0 1-2.19 13.59c-.27 1.41-.8 1.89-1.32 1.93-1.12.1-1.98-.72-3.06-1.42-1.7-1.09-2.67-1.77-4.32-2.83-1.9-1.23-.67-1.9.42-3.01.28-.29 5.23-4.68 5.32-5.08.02-.05.03-.24-.09-.34-.1-.1-.28-.06-.4-.04-.17.04-2.89 1.8-8.15 5.27-.77.52-1.47.77-2.1.76-.69-.02-2.02-.38-3-.7-1.22-.38-2.18-.58-2.1-1.24.05-.34.53-.69 1.44-1.04Z"/></svg>
