<svg xmlns="http://www.w3.org/2000/svg" viewBox="0 0 550 550"><path d="M464.43 85.57A267.89 267.89 0 1085.57 464.43 267.89 267.89 0 10464.43 85.57zM179.5 342.3V275h59.1v-51.3c0-58.4 34.8-90.6 88-90.6 25.5 0 52.1 4.5 52.1 4.5v57.3h-29.4c-28.9 0-37.9 18-37.9 36.4V275H376l-10.3 67.3h-54.3V505a242.7 242.7 0 01-36.4 2.8 230.21 230.21 0 01-36.4-2.8V342.3zm166.9 154.43V377.3h19.3a35 35 0 0034.6-29.7l10.3-67.31A35 35 0 00376 240h-29.6v-8.7-1.26a26.62 26.62 0 012.86-.14h29.4a35 35 0 0035-35v-57.3a35 35 0 00-29.16-34.51c-1.21-.2-29.82-5-57.94-5-36 0-66.68 11.64-88.7 33.65-22.44 22.44-34.3 54.24-34.3 91.95V240H179.5a35 35 0 00-35 35v67.3a35 35 0 0035 35h24.1v119.43C109.9 466.59 42.1 378.72 42.1 275 42.1 146.37 146.37 42.1 275 42.1S507.9 146.37 507.9 275c0 103.72-67.8 191.59-161.5 221.73z"/></svg>