<svg xmlns="http://www.w3.org/2000/svg" viewBox="0 0 510 550"><path d="M501.37 169.47c-1.35-30.95-7.07-48.68-11.28-59.33a114.2 114.2 0 00-27.24-41.79A114.27 114.27 0 00421 41.07h-.11c-11.59-4.46-28.77-9.76-59-11.19h-.13c-28.36-1.29-37.67-1.58-106.36-1.58s-78 .29-106.33 1.53c-30.95 1.35-48.68 7.07-59.33 11.28A114.2 114.2 0 0048 68.35a114.27 114.27 0 00-27.28 41.88.76.76 0 010 .11c-4.46 11.59-9.76 28.77-11.19 59a.57.57 0 010 .13C8.19 197.8 7.9 207.11 7.9 275.8s.29 78.1 1.53 106.33c1.35 31 7.08 48.69 11.28 59.34A114.33 114.33 0 0048 483.25a114.27 114.27 0 0041.88 27.28h.11c11.59 4.46 28.77 9.76 59 11.19h.13c28.32 1.24 37.62 1.53 106.33 1.53s78.11-.29 106.33-1.53c31-1.35 48.69-7.08 59.34-11.28a120.93 120.93 0 0069.05-69.12 1.17 1.17 0 00.05-.11c4.46-11.59 9.76-28.77 11.19-59v-.13c1.24-28.35 1.53-37.65 1.53-106.33s-.33-78.04-1.57-106.28zm-35 211.13c-1.2 25.3-5.4 39-8.9 48.1a86 86 0 01-49.2 49.2c-9.1 3.6-22.9 7.8-48.1 8.9-27.3 1.2-35.5 1.5-104.8 1.5s-77.4-.3-104.8-1.5c-25.3-1.2-39-5.4-48.1-8.9a80.16 80.16 0 01-29.8-19.4 80.16 80.16 0 01-19.4-29.8c-3.6-9.1-7.8-22.9-8.9-48.1-1.2-27.3-1.5-35.5-1.5-104.8s.3-77.4 1.5-104.8c1.2-25.3 5.4-39 8.9-48.1A80.16 80.16 0 0172.7 93.1a80.16 80.16 0 0129.8-19.4c9.1-3.6 22.9-7.8 48.1-8.9 27.4-1.2 35.6-1.5 104.8-1.5 69.2 0 77.4.3 104.8 1.5 25.3 1.2 39 5.4 48.1 8.9a80.16 80.16 0 0129.8 19.4 80.16 80.16 0 0119.4 29.8c3.6 9.1 7.8 22.9 8.9 48.1 1.2 27.3 1.5 35.5 1.5 104.8s-.3 77.4-1.5 104.8z"/><path d="M255.4 154.9a121 121 0 10121 121 121.14 121.14 0 00-121-121zm0 207a86 86 0 1186-86 86 86 0 01-86 86z"/><circle cx="353.1" cy="137.7" r="23"/></svg>