<svg xmlns="http://www.w3.org/2000/svg" viewBox="0 0 506 600"><path fill="#fff" stroke="#000" stroke-linejoin="round" stroke-width="70" d="M253.4 88.3c69.2 0 77.4.3 104.8 1.5 25.3 1.2 39 5.4 48.1 8.9 12.1 4.7 20.7 10.3 29.8 19.4 9.1 9.1 14.7 17.7 19.4 29.8 3.6 9.1 7.8 22.9 8.9 48.1 1.2 27.3 1.5 35.5 1.5 104.8s-.3 77.4-1.5 104.8c-1.2 25.3-5.4 39-8.9 48.1-4.7 12.1-10.3 20.7-19.4 29.8-9.1 9.1-17.7 14.7-29.8 19.4-9.1 3.6-22.9 7.8-48.1 8.9-27.3 1.2-35.5 1.5-104.8 1.5s-77.4-.3-104.8-1.5c-25.3-1.2-39-5.4-48.1-8.9-12.1-4.7-20.7-10.3-29.8-19.4-9.1-9.1-14.7-17.7-19.4-29.8-3.6-9.1-7.8-22.9-8.9-48.1-1.2-27.3-1.5-35.5-1.5-104.8s.3-77.4 1.5-104.8c1.2-25.3 5.4-39 8.9-48.1 4.7-12.1 10.3-20.7 19.4-29.8 9.1-9.1 17.7-14.7 29.8-19.4 9.1-3.6 22.9-7.8 48.1-8.9 27.4-1.2 35.6-1.5 104.8-1.5" paint-order="stroke"/><circle cx="253.4" cy="300.9" r="86" fill="#fff" stroke="#000" stroke-linejoin="round" stroke-width="70" paint-order="stroke"/><circle cx="351.1" cy="162.7" r="23"/></svg>