<svg xmlns="http://www.w3.org/2000/svg" viewBox="0 0 560 550"><path d="M168.26 434.73c-.1 20.95 8.58 33.67 15.89 40.65 9.87 9.45 23.31 14.22 37.9 13.47 24.42-1.32 37.08-13.58 44.69-20.94l27.4-26.6a34.32 34.32 0 004.1-4.77l87.64 64.63a34.16 34.16 0 004 2.54c13.26 7.25 24.93 9.79 34.78 9.79a53.94 53.94 0 0022.73-4.93c12.07-5.58 27.73-18.31 33.82-47.36L554 118.42c6.62-27.29-.1-52.47-18.05-67.48-16.32-13.65-39.33-16.44-60.31-7.41L48.46 208.24l-.42.17c-40 16-45 41.05-44.48 54.54.52 12.66 6.43 24.5 16.64 33.33 6.64 5.75 15.12 10.24 25.19 13.35l122.77 38.22.1 86.88m74.1 8.07c-6.2 6-11.1 10.5-22.2 11.1-9.6.5-17-5-16.9-19.1l-.1-67.8 66.6 49.2zm277.5-332.2L447 454c-5.1 24.4-19.8 30.2-40.3 19L222.36 337.1l211.3-182.3c9-8-2-11.9-14-4.7l-254.1 160.4-109.8-34.3c-23.7-7.3-23.9-23.6 5.3-35.3L489 75.9c19.46-8.8 38.36 4.8 30.86 34.7z"/></svg>