<svg xmlns="http://www.w3.org/2000/svg" viewBox="0 0 580 550"><path d="M566.16 98.54a35.06 35.06 0 00-7.44-6.63l.17-.5a35 35 0 00-51.12-40.93A169.64 169.64 0 01470.28 67a137.35 137.35 0 00-220.54 91.9 255.63 255.63 0 01-147.07-89.17 35 35 0 00-57.41 4.45 137.12 137.12 0 00-9.79 117.27 35 35 0 00-9.67 24.15v1.3a137.59 137.59 0 0031 86.94q2.83 3.48 5.89 6.73a34.92 34.92 0 00.65 19.13 137.05 137.05 0 0043.47 64 170.48 170.48 0 01-41.51 5.2 164.75 164.75 0 01-20.11-1.24 35 35 0 00-23.25 64.16A323.56 323.56 0 00197.6 513.4c50.06 0 97-10 139.59-29.71a310.2 310.2 0 00102.79-77c52.4-59.45 82.8-137.92 83.7-215.81a240.78 240.78 0 0044.86-50.4 35 35 0 00-2.38-41.94zM488.4 174.1c.3 4.4.3 8.8.3 13.2 0 135.2-102.9 291.1-291.1 291.1a289.12 289.12 0 01-156.7-46 199.77 199.77 0 0024.4 1.5 205.36 205.36 0 00127-43.9 102.29 102.29 0 01-95.6-71 103.07 103.07 0 0046.2-1.8 102.34 102.34 0 01-82.1-100.3v-1.3a101.84 101.84 0 0046.4 12.8A102.37 102.37 0 0175.5 91.8a290.16 290.16 0 00210.8 106.9 102.39 102.39 0 01174.3-93.3 204.49 204.49 0 0065-24.8 102.83 102.83 0 01-45 56.6 204 204 0 0058.8-16.1 207.29 207.29 0 01-51 53z"/></svg>