<svg xmlns="http://www.w3.org/2000/svg" viewBox="0 0 580 600"><path fill="#fff" stroke="#000" stroke-linejoin="round" stroke-width="70" d="M197.6 503.4c188.2 0 291.1-155.9 291.1-291.1 0-4.4 0-8.8-.3-13.2 20-14.5 37.3-32.4 51-53a203.8 203.8 0 0 1-58.8 16.1c21.4-12.8 37.3-32.9 45-56.6-20.1 11.9-42 20.3-65 24.8-38.7-41.2-103.5-43.2-144.7-4.4-26.6 25-37.8 62.2-29.6 97.7-82.3-4.1-158.9-43-210.8-106.9-27.2 46.7-13.3 106.5 31.7 136.6-16.3-.5-32.2-4.9-46.4-12.8v1.3c0 48.7 34.3 90.6 82.1 100.3-15.1 4.1-30.9 4.7-46.2 1.8a102.3 102.3 0 0 0 95.6 71c-36.2 28.5-81 43.9-127 43.9-8.1 0-16.3-.5-24.4-1.5 46.7 30.1 101.1 46 156.7 46" paint-order="stroke"/></svg>