<svg xmlns="http://www.w3.org/2000/svg" viewBox="0 0 721 600"><path fill="#fff" stroke="#000" stroke-linejoin="round" stroke-width="70" d="M665.6 138.7c4.7-14.9 0-25.8-21-25.8h-69.9c-17.6 0-25.8 9.5-30.5 19.7 0 0-35.9 86.8-86.1 143.1-16.3 16.3-23.7 21.7-32.6 21.7-4.7 0-10.9-5.4-10.9-20.3V138c0-17.6-5.4-25.8-20.3-25.8H284.4c-10.9 0-17.6 8.1-17.6 16.3 0 17 25.1 21 27.8 68.5v103.1c0 22.4-4.1 26.5-12.9 26.5-23.7 0-81.4-87.5-116-187.2-6.8-19.7-13.6-27.1-31.2-27.1H64c-20.3 0-23.7 9.5-23.7 19.7 0 18.3 23.7 110.6 110.6 232.6 57.7 83.4 139.7 128.2 213.7 128.2 44.8 0 50.2-10.2 50.2-27.1v-63.1c0-20.3 4.1-23.7 18.3-23.7 10.2 0 28.5 5.4 69.9 45.4 47.5 47.5 55.6 69.2 82.1 69.2H655c20.3 0 29.8-10.2 24.4-29.8-6.1-19.7-29.2-48.2-59-82.1-16.3-19-40.7-40-48.2-50.2-10.2-13.6-7.5-19 0-31.2-.9 0 84.6-120.8 93.4-161.5" paint-order="stroke"/></svg>