<svg xmlns="http://www.w3.org/2000/svg" viewBox="0 0 720 550"><path d="M712.64 429.4c-.09-.35-.2-.7-.31-1-7.83-25.29-30.13-53.89-66-94.71-9.22-10.72-20.1-21.4-29.71-30.82-4.12-4-9.25-9.07-12.84-12.82l3.93-5.84c57.22-84.9 84.66-133.47 91.3-161.68 6.8-24.1-1.81-40.42-7.63-48.07-15.55-20.43-41-21.57-47.49-21.51H574.2c-28.27 0-50.39 14.22-62.29 40.05-.19.41-.37.84-.55 1.26-.29.7-25.85 61.8-62.26 111.31V113c0-44.83-28.57-60.8-55.3-60.8H283.9a52.7 52.7 0 00-37.69 15.38 51.33 51.33 0 00-14.91 35.92c0 18.78 9.65 30.86 16 38.84 5.92 7.41 10.62 13.28 11.76 30.72v57c-18.68-28.78-41.82-72.33-60.82-127.07C193.5 89.12 180.79 52.3 134 52.3H63.5c-19.33 0-34.5 5.79-45.12 17.22C9.37 79.23 4.8 91.84 4.8 107c0 28.87 28.59 128.59 117 252.71 30.57 44.14 69.19 80.6 111.7 105.47 42.06 24.61 87.24 37.62 130.64 37.62 29.3 0 47.66-3.93 61.4-13.15 15.79-10.59 23.8-27.06 23.8-48.95v-41.43a312.71 312.71 0 0128.66 25c13.49 13.5 23.85 25.05 32.18 34.33 22.52 25.09 40.3 44.91 74.46 44.91h69.9c27.65 0 42.56-12 50.2-22 6.07-8.03 15.26-25.51 7.9-52.11zm-58.14 39.1h-69.9c-26.5 0-34.6-21.7-82.1-69.2-41.4-40-59.7-45.4-69.9-45.4-14.2 0-18.3 3.4-18.3 23.7v63.1c0 16.9-5.4 27.1-50.2 27.1-74 0-156-44.8-213.7-128.2C63.5 217.6 39.8 125.3 39.8 107c0-10.2 3.4-19.7 23.7-19.7H134c17.6 0 24.4 7.4 31.2 27.1 34.6 99.7 92.3 187.2 116 187.2 8.8 0 12.9-4.1 12.9-26.5V172c-2.7-47.5-27.8-51.5-27.8-68.5 0-8.2 6.7-16.3 17.6-16.3h109.9c14.9 0 20.3 8.2 20.3 25.8v139.1c0 14.9 6.2 20.3 10.9 20.3 8.9 0 16.3-5.4 32.6-21.7 50.2-56.3 86.1-143.1 86.1-143.1 4.7-10.2 12.9-19.7 30.5-19.7h69.9s29-.7 21 25.8c-8.8 40.7-94.3 161.5-93.4 161.5-7.5 12.2-10.2 17.6 0 31.2 7.5 10.2 31.9 31.2 48.2 50.2 29.8 33.9 52.9 62.4 59 82.1 5.4 19.6-4.1 29.8-24.4 29.8z"/></svg>